# Blender 4.4.0
# www.blender.org
o Motors
v -0.000000 0.003180 -0.141499
v -0.000000 0.003180 -0.120499
v 0.000619 0.003119 -0.141499
v 0.000619 0.003119 -0.120499
v 0.001215 0.002938 -0.141499
v 0.001215 0.002938 -0.120499
v 0.001764 0.002644 -0.141499
v 0.001764 0.002644 -0.120499
v 0.002245 0.002249 -0.141499
v 0.002245 0.002249 -0.120499
v 0.002640 0.001767 -0.141499
v 0.002640 0.001767 -0.120499
v 0.002933 0.001217 -0.141499
v 0.002933 0.001217 -0.120499
v 0.003114 0.000621 -0.141499
v 0.003114 0.000621 -0.120499
v 0.003175 0.000000 -0.141499
v 0.003175 0.000000 -0.120499
v 0.003114 -0.000620 -0.141499
v 0.003114 -0.000620 -0.120499
v 0.002933 -0.001217 -0.141499
v 0.002933 -0.001217 -0.120499
v 0.002640 -0.001767 -0.141499
v 0.002640 -0.001767 -0.120499
v 0.002245 -0.002248 -0.141499
v 0.002245 -0.002248 -0.120499
v 0.001764 -0.002644 -0.141499
v 0.001764 -0.002644 -0.120499
v 0.001215 -0.002938 -0.141499
v 0.001215 -0.002938 -0.120499
v 0.000619 -0.003119 -0.141499
v 0.000619 -0.003119 -0.120499
v -0.000000 -0.003180 -0.141499
v -0.000000 -0.003180 -0.120499
v -0.000619 -0.003119 -0.141499
v -0.000619 -0.003119 -0.120499
v -0.001215 -0.002938 -0.141499
v -0.001215 -0.002938 -0.120499
v -0.001764 -0.002644 -0.141499
v -0.001764 -0.002644 -0.120499
v -0.002245 -0.002248 -0.141499
v -0.002245 -0.002248 -0.120499
v -0.002640 -0.001767 -0.141499
v -0.002640 -0.001767 -0.120499
v -0.002933 -0.001217 -0.141499
v -0.002933 -0.001217 -0.120499
v -0.003114 -0.000620 -0.141499
v -0.003114 -0.000620 -0.120499
v -0.003175 0.000000 -0.141499
v -0.003175 0.000000 -0.120499
v -0.003114 0.000621 -0.141499
v -0.003114 0.000621 -0.120499
v -0.002933 0.001217 -0.141499
v -0.002933 0.001217 -0.120499
v -0.002640 0.001767 -0.141499
v -0.002640 0.001767 -0.120499
v -0.002245 0.002249 -0.141499
v -0.002245 0.002249 -0.120499
v -0.001764 0.002644 -0.141499
v -0.001764 0.002644 -0.120499
v -0.001215 0.002938 -0.141499
v -0.001215 0.002938 -0.120499
v -0.000619 0.003119 -0.141499
v -0.000619 0.003119 -0.120499
v 0.028500 0.028500 -0.036499
v -0.028500 0.028500 -0.036499
v 0.028500 -0.028500 -0.036499
v -0.028500 -0.028500 -0.036499
v 0.028500 0.028500 -0.120499
v -0.028500 0.028500 -0.120499
v 0.028500 -0.028500 -0.120499
v -0.028500 -0.028500 -0.120499
v -0.000000 -0.003180 -0.021499
v -0.000000 -0.003180 -0.036499
v 0.000619 -0.003119 -0.021499
v 0.000619 -0.003119 -0.036499
v 0.001215 -0.002938 -0.021499
v 0.001215 -0.002938 -0.036499
v 0.001764 -0.002644 -0.021499
v 0.001764 -0.002644 -0.036499
v 0.002245 -0.002248 -0.021499
v 0.002245 -0.002248 -0.036499
v 0.002640 -0.001767 -0.021499
v 0.002640 -0.001767 -0.036499
v 0.002933 -0.001217 -0.021499
v 0.002933 -0.001217 -0.036499
v 0.003114 -0.000620 -0.021499
v 0.003114 -0.000620 -0.036499
v 0.003175 0.000000 -0.021499
v 0.003175 0.000000 -0.036499
v 0.003114 0.000621 -0.021499
v 0.003114 0.000621 -0.036499
v 0.002933 0.001217 -0.021499
v 0.002933 0.001217 -0.036499
v 0.002640 0.001767 -0.021499
v 0.002640 0.001767 -0.036499
v 0.002245 0.002249 -0.021499
v 0.002245 0.002249 -0.036499
v 0.001764 0.002644 -0.021499
v 0.001764 0.002644 -0.036499
v 0.001215 0.002938 -0.021499
v 0.001215 0.002938 -0.036499
v 0.000619 0.003119 -0.021499
v 0.000619 0.003119 -0.036499
v -0.000000 0.003180 -0.021499
v -0.000000 0.003180 -0.036499
v -0.000619 0.003119 -0.021499
v -0.000619 0.003119 -0.036499
v -0.001215 0.002938 -0.021499
v -0.001215 0.002938 -0.036499
v -0.001764 0.002644 -0.021499
v -0.001764 0.002644 -0.036499
v -0.002245 0.002249 -0.021499
v -0.002245 0.002249 -0.036499
v -0.002640 0.001767 -0.021499
v -0.002640 0.001767 -0.036499
v -0.002933 0.001217 -0.021499
v -0.002933 0.001217 -0.036499
v -0.003114 0.000621 -0.021499
v -0.003114 0.000621 -0.036499
v -0.003175 0.000000 -0.021499
v -0.003175 0.000000 -0.036499
v -0.003114 -0.000620 -0.021499
v -0.003114 -0.000620 -0.036499
v -0.002933 -0.001217 -0.021499
v -0.002933 -0.001217 -0.036499
v -0.002640 -0.001767 -0.021499
v -0.002640 -0.001767 -0.036499
v -0.002245 -0.002248 -0.021499
v -0.002245 -0.002248 -0.036499
v -0.001764 -0.002644 -0.021499
v -0.001764 -0.002644 -0.036499
v -0.001215 -0.002938 -0.021499
v -0.001215 -0.002938 -0.036499
v -0.000619 -0.003119 -0.021499
v -0.000619 -0.003119 -0.036499
v -0.000000 -0.003180 0.141499
v -0.000000 -0.003180 0.120499
v 0.000619 -0.003119 0.141499
v 0.000619 -0.003119 0.120499
v 0.001215 -0.002938 0.141499
v 0.001215 -0.002938 0.120499
v 0.001764 -0.002644 0.141499
v 0.001764 -0.002644 0.120499
v 0.002245 -0.002249 0.141499
v 0.002245 -0.002249 0.120499
v 0.002640 -0.001767 0.141499
v 0.002640 -0.001767 0.120499
v 0.002933 -0.001217 0.141499
v 0.002933 -0.001217 0.120499
v 0.003114 -0.000620 0.141499
v 0.003114 -0.000620 0.120499
v 0.003175 -0.000000 0.141499
v 0.003175 -0.000000 0.120499
v 0.003114 0.000620 0.141499
v 0.003114 0.000620 0.120499
v 0.002933 0.001217 0.141499
v 0.002933 0.001217 0.120499
v 0.002640 0.001767 0.141499
v 0.002640 0.001767 0.120499
v 0.002245 0.002249 0.141499
v 0.002245 0.002249 0.120499
v 0.001764 0.002644 0.141499
v 0.001764 0.002644 0.120499
v 0.001215 0.002938 0.141499
v 0.001215 0.002938 0.120499
v 0.000619 0.003119 0.141499
v 0.000619 0.003119 0.120499
v -0.000000 0.003180 0.141499
v -0.000000 0.003180 0.120499
v -0.000619 0.003119 0.141499
v -0.000619 0.003119 0.120499
v -0.001215 0.002938 0.141499
v -0.001215 0.002938 0.120499
v -0.001764 0.002644 0.141499
v -0.001764 0.002644 0.120499
v -0.002245 0.002249 0.141499
v -0.002245 0.002249 0.120499
v -0.002640 0.001767 0.141499
v -0.002640 0.001767 0.120499
v -0.002933 0.001217 0.141499
v -0.002933 0.001217 0.120499
v -0.003114 0.000620 0.141499
v -0.003114 0.000620 0.120499
v -0.003175 -0.000000 0.141499
v -0.003175 -0.000000 0.120499
v -0.003114 -0.000620 0.141499
v -0.003114 -0.000620 0.120499
v -0.002933 -0.001217 0.141499
v -0.002933 -0.001217 0.120499
v -0.002640 -0.001767 0.141499
v -0.002640 -0.001767 0.120499
v -0.002245 -0.002249 0.141499
v -0.002245 -0.002249 0.120499
v -0.001764 -0.002644 0.141499
v -0.001764 -0.002644 0.120499
v -0.001215 -0.002938 0.141499
v -0.001215 -0.002938 0.120499
v -0.000619 -0.003119 0.141499
v -0.000619 -0.003119 0.120499
v 0.028500 -0.028500 0.036499
v -0.028500 -0.028500 0.036499
v 0.028500 0.028500 0.036499
v -0.028500 0.028500 0.036499
v 0.028500 -0.028500 0.120499
v -0.028500 -0.028500 0.120499
v 0.028500 0.028500 0.120499
v -0.028500 0.028500 0.120499
v -0.000000 0.003180 0.021499
v -0.000000 0.003180 0.036499
v 0.000619 0.003119 0.021499
v 0.000619 0.003119 0.036499
v 0.001215 0.002938 0.021499
v 0.001215 0.002938 0.036499
v 0.001764 0.002644 0.021499
v 0.001764 0.002644 0.036499
v 0.002245 0.002249 0.021499
v 0.002245 0.002249 0.036499
v 0.002640 0.001767 0.021499
v 0.002640 0.001767 0.036499
v 0.002933 0.001217 0.021499
v 0.002933 0.001217 0.036499
v 0.003114 0.000620 0.021499
v 0.003114 0.000620 0.036499
v 0.003175 -0.000000 0.021499
v 0.003175 -0.000000 0.036499
v 0.003114 -0.000620 0.021499
v 0.003114 -0.000620 0.036499
v 0.002933 -0.001217 0.021499
v 0.002933 -0.001217 0.036499
v 0.002640 -0.001767 0.021499
v 0.002640 -0.001767 0.036499
v 0.002245 -0.002249 0.021499
v 0.002245 -0.002249 0.036499
v 0.001764 -0.002644 0.021499
v 0.001764 -0.002644 0.036499
v 0.001215 -0.002938 0.021499
v 0.001215 -0.002938 0.036499
v 0.000619 -0.003119 0.021499
v 0.000619 -0.003119 0.036499
v -0.000000 -0.003180 0.021499
v -0.000000 -0.003180 0.036499
v -0.000619 -0.003119 0.021499
v -0.000619 -0.003119 0.036499
v -0.001215 -0.002938 0.021499
v -0.001215 -0.002938 0.036499
v -0.001764 -0.002644 0.021499
v -0.001764 -0.002644 0.036499
v -0.002245 -0.002249 0.021499
v -0.002245 -0.002249 0.036499
v -0.002640 -0.001767 0.021499
v -0.002640 -0.001767 0.036499
v -0.002933 -0.001217 0.021499
v -0.002933 -0.001217 0.036499
v -0.003114 -0.000620 0.021499
v -0.003114 -0.000620 0.036499
v -0.003175 -0.000000 0.021499
v -0.003175 -0.000000 0.036499
v -0.003114 0.000620 0.021499
v -0.003114 0.000620 0.036499
v -0.002933 0.001217 0.021499
v -0.002933 0.001217 0.036499
v -0.002640 0.001767 0.021499
v -0.002640 0.001767 0.036499
v -0.002245 0.002249 0.021499
v -0.002245 0.002249 0.036499
v -0.001764 0.002644 0.021499
v -0.001764 0.002644 0.036499
v -0.001215 0.002938 0.021499
v -0.001215 0.002938 0.036499
v -0.000619 0.003119 0.021499
v -0.000619 0.003119 0.036499
vn 0.0982 0.9952 -0.0000
vn 0.2907 0.9568 -0.0000
vn 0.4720 0.8816 -0.0000
vn 0.6350 0.7725 -0.0000
vn 0.7735 0.6338 -0.0000
vn 0.8822 0.4708 -0.0000
vn 0.9571 0.2899 -0.0000
vn 0.9952 0.0979 -0.0000
vn 0.9952 -0.0979 -0.0000
vn 0.9571 -0.2899 -0.0000
vn 0.8822 -0.4708 -0.0000
vn 0.7735 -0.6338 -0.0000
vn 0.6350 -0.7725 -0.0000
vn 0.4720 -0.8816 -0.0000
vn 0.2907 -0.9568 -0.0000
vn 0.0982 -0.9952 -0.0000
vn -0.0982 -0.9952 -0.0000
vn -0.2907 -0.9568 -0.0000
vn -0.4720 -0.8816 -0.0000
vn -0.6350 -0.7725 -0.0000
vn -0.7735 -0.6338 -0.0000
vn -0.8822 -0.4708 -0.0000
vn -0.9571 -0.2899 -0.0000
vn -0.9952 -0.0979 -0.0000
vn -0.9952 0.0979 -0.0000
vn -0.9571 0.2899 -0.0000
vn -0.8822 0.4708 -0.0000
vn -0.7735 0.6338 -0.0000
vn -0.6350 0.7725 -0.0000
vn -0.4720 0.8816 -0.0000
vn -0.0000 -0.0000 1.0000
vn -0.2907 0.9568 -0.0000
vn -0.0982 0.9952 -0.0000
vn -0.0000 -0.0000 -1.0000
vn -0.0000 -1.0000 -0.0000
vn -0.0000 1.0000 -0.0000
vn 1.0000 -0.0000 -0.0000
vn -1.0000 -0.0000 -0.0000
vt 1.000000 0.500000
vt 1.000000 1.000000
vt 0.968750 1.000000
vt 0.968750 0.500000
vt 0.937500 1.000000
vt 0.937500 0.500000
vt 0.906250 1.000000
vt 0.906250 0.500000
vt 0.875000 1.000000
vt 0.875000 0.500000
vt 0.843750 1.000000
vt 0.843750 0.500000
vt 0.812500 1.000000
vt 0.812500 0.500000
vt 0.781250 1.000000
vt 0.781250 0.500000
vt 0.750000 1.000000
vt 0.750000 0.500000
vt 0.718750 1.000000
vt 0.718750 0.500000
vt 0.687500 1.000000
vt 0.687500 0.500000
vt 0.656250 1.000000
vt 0.656250 0.500000
vt 0.625000 1.000000
vt 0.625000 0.500000
vt 0.593750 1.000000
vt 0.593750 0.500000
vt 0.562500 1.000000
vt 0.562500 0.500000
vt 0.531250 1.000000
vt 0.531250 0.500000
vt 0.500000 1.000000
vt 0.500000 0.500000
vt 0.468750 1.000000
vt 0.468750 0.500000
vt 0.437500 1.000000
vt 0.437500 0.500000
vt 0.406250 1.000000
vt 0.406250 0.500000
vt 0.375000 1.000000
vt 0.375000 0.500000
vt 0.343750 1.000000
vt 0.343750 0.500000
vt 0.312500 1.000000
vt 0.312500 0.500000
vt 0.281250 1.000000
vt 0.281250 0.500000
vt 0.250000 1.000000
vt 0.250000 0.500000
vt 0.218750 1.000000
vt 0.218750 0.500000
vt 0.187500 1.000000
vt 0.187500 0.500000
vt 0.156250 1.000000
vt 0.156250 0.500000
vt 0.125000 1.000000
vt 0.125000 0.500000
vt 0.093750 1.000000
vt 0.093750 0.500000
vt 0.062500 1.000000
vt 0.062500 0.500000
vt 0.296822 0.485388
vt 0.250000 0.490000
vt 0.203178 0.485388
vt 0.158156 0.471731
vt 0.116663 0.449553
vt 0.080294 0.419706
vt 0.050447 0.383337
vt 0.028269 0.341844
vt 0.014612 0.296822
vt 0.010000 0.250000
vt 0.014612 0.203178
vt 0.028269 0.158156
vt 0.050447 0.116663
vt 0.080294 0.080294
vt 0.116663 0.050447
vt 0.158156 0.028269
vt 0.203178 0.014612
vt 0.250000 0.010000
vt 0.296822 0.014612
vt 0.341844 0.028269
vt 0.383337 0.050447
vt 0.419706 0.080294
vt 0.449553 0.116663
vt 0.471731 0.158156
vt 0.485388 0.203178
vt 0.490000 0.250000
vt 0.485388 0.296822
vt 0.471731 0.341844
vt 0.449553 0.383337
vt 0.419706 0.419706
vt 0.383337 0.449553
vt 0.341844 0.471731
vt 0.031250 1.000000
vt 0.031250 0.500000
vt 0.000000 1.000000
vt 0.000000 0.500000
vt 0.750000 0.490000
vt 0.796822 0.485388
vt 0.841844 0.471731
vt 0.883337 0.449553
vt 0.919706 0.419706
vt 0.949553 0.383337
vt 0.971731 0.341844
vt 0.985388 0.296822
vt 0.990000 0.250000
vt 0.985388 0.203178
vt 0.971731 0.158156
vt 0.949553 0.116663
vt 0.919706 0.080294
vt 0.883337 0.050447
vt 0.841844 0.028269
vt 0.796822 0.014612
vt 0.750000 0.010000
vt 0.703178 0.014612
vt 0.658156 0.028269
vt 0.616663 0.050447
vt 0.580294 0.080294
vt 0.550447 0.116663
vt 0.528269 0.158156
vt 0.514612 0.203178
vt 0.510000 0.250000
vt 0.514612 0.296822
vt 0.528269 0.341844
vt 0.550447 0.383337
vt 0.580294 0.419706
vt 0.616663 0.449553
vt 0.658156 0.471731
vt 0.703178 0.485388
vt 0.375000 0.000000
vt 0.625000 0.000000
vt 0.625000 0.250000
vt 0.375000 0.250000
vt 0.625000 0.750000
vt 0.375000 0.750000
vt 0.125000 0.750000
vt 0.875000 0.750000
s 0
f 1/1/1 2/2/1 4/3/1 3/4/1
f 3/4/2 4/3/2 6/5/2 5/6/2
f 5/6/3 6/5/3 8/7/3 7/8/3
f 7/8/4 8/7/4 10/9/4 9/10/4
f 9/10/5 10/9/5 12/11/5 11/12/5
f 11/12/6 12/11/6 14/13/6 13/14/6
f 13/14/7 14/13/7 16/15/7 15/16/7
f 15/16/8 16/15/8 18/17/8 17/18/8
f 17/18/9 18/17/9 20/19/9 19/20/9
f 19/20/10 20/19/10 22/21/10 21/22/10
f 21/22/11 22/21/11 24/23/11 23/24/11
f 23/24/12 24/23/12 26/25/12 25/26/12
f 25/26/13 26/25/13 28/27/13 27/28/13
f 27/28/14 28/27/14 30/29/14 29/30/14
f 29/30/15 30/29/15 32/31/15 31/32/15
f 31/32/16 32/31/16 34/33/16 33/34/16
f 33/34/17 34/33/17 36/35/17 35/36/17
f 35/36/18 36/35/18 38/37/18 37/38/18
f 37/38/19 38/37/19 40/39/19 39/40/19
f 39/40/20 40/39/20 42/41/20 41/42/20
f 41/42/21 42/41/21 44/43/21 43/44/21
f 43/44/22 44/43/22 46/45/22 45/46/22
f 45/46/23 46/45/23 48/47/23 47/48/23
f 47/48/24 48/47/24 50/49/24 49/50/24
f 49/50/25 50/49/25 52/51/25 51/52/25
f 51/52/26 52/51/26 54/53/26 53/54/26
f 53/54/27 54/53/27 56/55/27 55/56/27
f 55/56/28 56/55/28 58/57/28 57/58/28
f 57/58/29 58/57/29 60/59/29 59/60/29
f 59/60/30 60/59/30 62/61/30 61/62/30
f 4/63/31 2/64/31 64/65/31 62/66/31 60/67/31 58/68/31 56/69/31 54/70/31 52/71/31 50/72/31 48/73/31 46/74/31 44/75/31 42/76/31 40/77/31 38/78/31 36/79/31 34/80/31 32/81/31 30/82/31 28/83/31 26/84/31 24/85/31 22/86/31 20/87/31 18/88/31 16/89/31 14/90/31 12/91/31 10/92/31 8/93/31 6/94/31
f 61/62/32 62/61/32 64/95/32 63/96/32
f 63/96/33 64/95/33 2/97/33 1/98/33
f 1/99/34 3/100/34 5/101/34 7/102/34 9/103/34 11/104/34 13/105/34 15/106/34 17/107/34 19/108/34 21/109/34 23/110/34 25/111/34 27/112/34 29/113/34 31/114/34 33/115/34 35/116/34 37/117/34 39/118/34 41/119/34 43/120/34 45/121/34 47/122/34 49/123/34 51/124/34 53/125/34 55/126/34 57/127/34 59/128/34 61/129/34 63/130/34
f 65/131/31 66/132/31 68/133/31 67/134/31
f 67/134/35 68/133/35 72/26/35 71/42/35
f 71/42/34 72/26/34 70/135/34 69/136/34
f 69/136/36 70/135/36 66/25/36 65/41/36
f 67/58/37 71/42/37 69/136/37 65/137/37
f 72/26/38 68/10/38 66/138/38 70/135/38
f 73/1/16 74/2/16 76/3/16 75/4/16
f 75/4/15 76/3/15 78/5/15 77/6/15
f 77/6/14 78/5/14 80/7/14 79/8/14
f 79/8/13 80/7/13 82/9/13 81/10/13
f 81/10/12 82/9/12 84/11/12 83/12/12
f 83/12/11 84/11/11 86/13/11 85/14/11
f 85/14/10 86/13/10 88/15/10 87/16/10
f 87/16/9 88/15/9 90/17/9 89/18/9
f 89/18/8 90/17/8 92/19/8 91/20/8
f 91/20/7 92/19/7 94/21/7 93/22/7
f 93/22/6 94/21/6 96/23/6 95/24/6
f 95/24/5 96/23/5 98/25/5 97/26/5
f 97/26/4 98/25/4 100/27/4 99/28/4
f 99/28/3 100/27/3 102/29/3 101/30/3
f 101/30/2 102/29/2 104/31/2 103/32/2
f 103/32/1 104/31/1 106/33/1 105/34/1
f 105/34/33 106/33/33 108/35/33 107/36/33
f 107/36/32 108/35/32 110/37/32 109/38/32
f 109/38/30 110/37/30 112/39/30 111/40/30
f 111/40/29 112/39/29 114/41/29 113/42/29
f 113/42/28 114/41/28 116/43/28 115/44/28
f 115/44/27 116/43/27 118/45/27 117/46/27
f 117/46/26 118/45/26 120/47/26 119/48/26
f 119/48/25 120/47/25 122/49/25 121/50/25
f 121/50/24 122/49/24 124/51/24 123/52/24
f 123/52/23 124/51/23 126/53/23 125/54/23
f 125/54/22 126/53/22 128/55/22 127/56/22
f 127/56/21 128/55/21 130/57/21 129/58/21
f 129/58/20 130/57/20 132/59/20 131/60/20
f 131/60/19 132/59/19 134/61/19 133/62/19
f 76/63/34 74/64/34 136/65/34 134/66/34 132/67/34 130/68/34 128/69/34 126/70/34 124/71/34 122/72/34 120/73/34 118/74/34 116/75/34 114/76/34 112/77/34 110/78/34 108/79/34 106/80/34 104/81/34 102/82/34 100/83/34 98/84/34 96/85/34 94/86/34 92/87/34 90/88/34 88/89/34 86/90/34 84/91/34 82/92/34 80/93/34 78/94/34
f 133/62/18 134/61/18 136/95/18 135/96/18
f 135/96/17 136/95/17 74/97/17 73/98/17
f 73/99/31 75/100/31 77/101/31 79/102/31 81/103/31 83/104/31 85/105/31 87/106/31 89/107/31 91/108/31 93/109/31 95/110/31 97/111/31 99/112/31 101/113/31 103/114/31 105/115/31 107/116/31 109/117/31 111/118/31 113/119/31 115/120/31 117/121/31 119/122/31 121/123/31 123/124/31 125/125/31 127/126/31 129/127/31 131/128/31 133/129/31 135/130/31
f 137/1/16 138/2/16 140/3/16 139/4/16
f 139/4/15 140/3/15 142/5/15 141/6/15
f 141/6/14 142/5/14 144/7/14 143/8/14
f 143/8/13 144/7/13 146/9/13 145/10/13
f 145/10/12 146/9/12 148/11/12 147/12/12
f 147/12/11 148/11/11 150/13/11 149/14/11
f 149/14/10 150/13/10 152/15/10 151/16/10
f 151/16/9 152/15/9 154/17/9 153/18/9
f 153/18/8 154/17/8 156/19/8 155/20/8
f 155/20/7 156/19/7 158/21/7 157/22/7
f 157/22/6 158/21/6 160/23/6 159/24/6
f 159/24/5 160/23/5 162/25/5 161/26/5
f 161/26/4 162/25/4 164/27/4 163/28/4
f 163/28/3 164/27/3 166/29/3 165/30/3
f 165/30/2 166/29/2 168/31/2 167/32/2
f 167/32/1 168/31/1 170/33/1 169/34/1
f 169/34/33 170/33/33 172/35/33 171/36/33
f 171/36/32 172/35/32 174/37/32 173/38/32
f 173/38/30 174/37/30 176/39/30 175/40/30
f 175/40/29 176/39/29 178/41/29 177/42/29
f 177/42/28 178/41/28 180/43/28 179/44/28
f 179/44/27 180/43/27 182/45/27 181/46/27
f 181/46/26 182/45/26 184/47/26 183/48/26
f 183/48/25 184/47/25 186/49/25 185/50/25
f 185/50/24 186/49/24 188/51/24 187/52/24
f 187/52/23 188/51/23 190/53/23 189/54/23
f 189/54/22 190/53/22 192/55/22 191/56/22
f 191/56/21 192/55/21 194/57/21 193/58/21
f 193/58/20 194/57/20 196/59/20 195/60/20
f 195/60/19 196/59/19 198/61/19 197/62/19
f 140/63/34 138/64/34 200/65/34 198/66/34 196/67/34 194/68/34 192/69/34 190/70/34 188/71/34 186/72/34 184/73/34 182/74/34 180/75/34 178/76/34 176/77/34 174/78/34 172/79/34 170/80/34 168/81/34 166/82/34 164/83/34 162/84/34 160/85/34 158/86/34 156/87/34 154/88/34 152/89/34 150/90/34 148/91/34 146/92/34 144/93/34 142/94/34
f 197/62/18 198/61/18 200/95/18 199/96/18
f 199/96/17 200/95/17 138/97/17 137/98/17
f 137/99/31 139/100/31 141/101/31 143/102/31 145/103/31 147/104/31 149/105/31 151/106/31 153/107/31 155/108/31 157/109/31 159/110/31 161/111/31 163/112/31 165/113/31 167/114/31 169/115/31 171/116/31 173/117/31 175/118/31 177/119/31 179/120/31 181/121/31 183/122/31 185/123/31 187/124/31 189/125/31 191/126/31 193/127/31 195/128/31 197/129/31 199/130/31
f 201/131/34 202/132/34 204/133/34 203/134/34
f 203/134/36 204/133/36 208/26/36 207/42/36
f 207/42/31 208/26/31 206/135/31 205/136/31
f 205/136/35 206/135/35 202/25/35 201/41/35
f 203/58/37 207/42/37 205/136/37 201/137/37
f 208/26/38 204/10/38 202/138/38 206/135/38
f 209/1/1 210/2/1 212/3/1 211/4/1
f 211/4/2 212/3/2 214/5/2 213/6/2
f 213/6/3 214/5/3 216/7/3 215/8/3
f 215/8/4 216/7/4 218/9/4 217/10/4
f 217/10/5 218/9/5 220/11/5 219/12/5
f 219/12/6 220/11/6 222/13/6 221/14/6
f 221/14/7 222/13/7 224/15/7 223/16/7
f 223/16/8 224/15/8 226/17/8 225/18/8
f 225/18/9 226/17/9 228/19/9 227/20/9
f 227/20/10 228/19/10 230/21/10 229/22/10
f 229/22/11 230/21/11 232/23/11 231/24/11
f 231/24/12 232/23/12 234/25/12 233/26/12
f 233/26/13 234/25/13 236/27/13 235/28/13
f 235/28/14 236/27/14 238/29/14 237/30/14
f 237/30/15 238/29/15 240/31/15 239/32/15
f 239/32/16 240/31/16 242/33/16 241/34/16
f 241/34/17 242/33/17 244/35/17 243/36/17
f 243/36/18 244/35/18 246/37/18 245/38/18
f 245/38/19 246/37/19 248/39/19 247/40/19
f 247/40/20 248/39/20 250/41/20 249/42/20
f 249/42/21 250/41/21 252/43/21 251/44/21
f 251/44/22 252/43/22 254/45/22 253/46/22
f 253/46/23 254/45/23 256/47/23 255/48/23
f 255/48/24 256/47/24 258/49/24 257/50/24
f 257/50/25 258/49/25 260/51/25 259/52/25
f 259/52/26 260/51/26 262/53/26 261/54/26
f 261/54/27 262/53/27 264/55/27 263/56/27
f 263/56/28 264/55/28 266/57/28 265/58/28
f 265/58/29 266/57/29 268/59/29 267/60/29
f 267/60/30 268/59/30 270/61/30 269/62/30
f 212/63/31 210/64/31 272/65/31 270/66/31 268/67/31 266/68/31 264/69/31 262/70/31 260/71/31 258/72/31 256/73/31 254/74/31 252/75/31 250/76/31 248/77/31 246/78/31 244/79/31 242/80/31 240/81/31 238/82/31 236/83/31 234/84/31 232/85/31 230/86/31 228/87/31 226/88/31 224/89/31 222/90/31 220/91/31 218/92/31 216/93/31 214/94/31
f 269/62/32 270/61/32 272/95/32 271/96/32
f 271/96/33 272/95/33 210/97/33 209/98/33
f 209/99/34 211/100/34 213/101/34 215/102/34 217/103/34 219/104/34 221/105/34 223/106/34 225/107/34 227/108/34 229/109/34 231/110/34 233/111/34 235/112/34 237/113/34 239/114/34 241/115/34 243/116/34 245/117/34 247/118/34 249/119/34 251/120/34 253/121/34 255/122/34 257/123/34 259/124/34 261/125/34 263/126/34 265/127/34 267/128/34 269/129/34 271/130/34
